<?xml version="1.0" standalone="no"?>
<!DOCTYPE svg PUBLIC "-//W3C//DTD SVG 20010904//EN"
    "http://www.w3.org/TR/2001/REC-SVG-20010904/DTD/svg10.dtd">
<svg version="1.0" xmlns="http://www.w3.org/2000/svg"
     width="512.000000pt" height="512.000000pt" viewBox="0 0 512.000000 512.000000"
     preserveAspectRatio="xMidYMid meet">

    <defs>
        <linearGradient id="ttb" y2="1">
            <stop offset="0%" stop-color="#FFFFFF" stop-opacity="1">
                <animate
                    attributeName="offset"
                    values="0;1;1;0"
                    repeatCount="indefinite"
                    dur="2s" />
            </stop>
            <stop offset="100%" stop-color="#333333" stop-opacity="1">
                <animate
                    attributeName="offset"
                    values="0;1;1;0"
                    repeatCount="indefinite"
                    dur="2s" />
            </stop>
        </linearGradient>

    </defs>

    <g transform="translate(0.000000,512.000000) scale(0.100000,-0.100000)"
       fill="url(#ttb)" stroke="none">
        <path d="M1475 4624 c-234 -36 -440 -181 -558 -394 -73 -133 -105 -311 -87
    -480 7 -58 16 -109 20 -115 4 -5 11 -26 15 -45 4 -19 11 -39 15 -45 4 -5 11
    -21 15 -35 22 -72 149 -232 233 -293 175 -129 374 -174 597 -136 33 5 69 14
    80 19 27 12 210 64 315 89 317 76 448 49 573 -120 37 -52 102 -193 132 -289 9
    -30 20 -64 25 -75 5 -11 22 -67 39 -125 46 -156 51 -171 74 -220 57 -121 162
    -241 272 -313 113 -72 191 -101 326 -117 263 -33 539 89 693 304 114 159 165
    335 153 521 -20 299 -182 545 -439 665 -109 50 -178 64 -318 64 -126 0 -136
    -1 -360 -67 -85 -25 -189 -53 -230 -62 -96 -23 -293 -31 -329 -15 -76 35 -97
    48 -126 75 -62 58 -111 137 -160 260 -21 52 -98 283 -119 360 -10 33 -21 68
    -27 77 -5 10 -9 23 -9 30 0 17 -55 121 -92 176 -153 223 -448 349 -723 306z"/>
        <path d="M2220 2014 c-152 -33 -278 -101 -384 -207 -120 -121 -184 -243 -216
    -412 -10 -54 -7 -242 5 -290 55 -226 193 -409 385 -512 71 -38 107 -51 209
    -74 103 -23 198 -24 294 -3 251 55 442 201 545 417 59 123 76 212 69 371 -6
    141 -16 186 -71 300 -30 63 -102 164 -146 207 -36 35 -143 111 -187 133 -154
    78 -344 104 -503 70z"/>
    </g>
</svg>
